# xmcd
#
# Track frame offsets: 
#        150
#        24225
#        50625
#        62945
#        86045
#        105395
#        125870
#        138920
#        154820
#        174920
#        203570
#        230720
#        248720
#        265070
#        288245
#
# Disc length: 4017 seconds
#
# Revision: 0
# Processed by: cddbd v1.5.2PL0 Copyright (c) Steve Scherf et al.
# Submitted via: ExactAudioCopy v0.99pb5
#
DISCID=cf0faf0f
DTITLE=S. E. Willis - Cold Hand In Mine
DYEAR=2003
DGENRE=Blues
TTITLE0=Cold Hand In Mine
TTITLE1=Wreck On The Highway
TTITLE2=Blue Moon On Kentucky
TTITLE3=When And If
TTITLE4=The Bitter And The Sweet
TTITLE5=If The Drink Don't Kill Me
TTITLE6=Chasin' A Train
TTITLE7=Muddy Water
TTITLE8=That's My Dream
TTITLE9=Poison Love
TTITLE10=I'm Tired
TTITLE11=Missy Missy
TTITLE12=Think Twice
TTITLE13=I'm Coming Home
TTITLE14=No Teardrops Tonight
EXTD=
EXTT0=
EXTT1=
EXTT2=
EXTT3=
EXTT4=
EXTT5=
EXTT6=
EXTT7=
EXTT8=
EXTT9=
EXTT10=
EXTT11=
EXTT12=
EXTT13=
EXTT14=
PLAYORDER=
